<svg id="svg" width="450" height="450" viewBox="0 0 450 450" fill="none" xmlns="http://www.w3.org/2000/svg">
  <path d="M229.75 88.5H232.25L235.75 89.75L239.75 92L243.25 94L249.25 97.5L253.25 99.75L258.5 102.75L262.5 105L267.25 107.75L270.75 109.75L274.75 112L286 118.5L290.25 120.75L300.75 126.75L305.25 129.25L310.75 132.5L318.75 137L323.25 139.5L329 142.75L332.25 144.75L336 147L339.5 149L340.25 150V152.75L339.75 154L332.75 158L327 161.25L322.5 163.75L318.5 166L313.25 169L308.75 171.5L306 173L303.5 174.5L301.75 175H297.5L295.25 174.25L288.25 170L283.25 167L278.75 164.5L270.75 160L264.5 155.5L258 150.75L252.5 147L246.75 143.25L244.5 142.25L243.5 142V143.25L244.25 144.5L249.5 148.5L254.5 152.25L259.75 156.25L264.75 160L270.5 164.25L275.5 168L280.75 171.5L286.25 175.25L291.5 178.75L295.75 181.25L299.75 183.5L303 185.25L306 187.25L308.75 188.75L311.25 190.25L313.5 191.5L315.5 192.5L317.25 193.25L318.75 194H322L323.75 193.75L325.5 193.25L327.25 192.75L328.75 192L330.25 191.25L331.75 190.5L334.5 188.5L337 186.75L339.25 185L340.5 184.25L341 185L341.25 186.5H341.75L342 187V296.75L341.25 298.5L339 300L333.75 302.75L323.25 308.75L318.25 311.5L313 314.75L308.75 317L305.5 319L302.25 320.75L298.75 322.75L293.75 325.5L289.75 327.75L286 330L281.5 332.5L277.5 334.75L273.75 337L269.25 339.5L265.75 341.5L261 344.25L255.5 347.25L251.5 349.5L247.75 351.75L242.75 354.5L240.25 356L236.75 358L234.5 359.25L233.5 359.5H228.25L225.75 358.25L220.75 355.25L217.25 353.25L212.75 350.75L212.5 349.25V278L212.75 277.5L215 277.75L219 279.75L222.75 281.75L227 284L231 285.75L236 288.5L240 290.75L244.25 293L248.75 295.5L252.75 297.75L256.5 300L260.75 302.25L265.5 304.5L270.25 306.75L275.5 309L283.25 312.5L288.5 315L292.5 317L297 319.25L300.75 321.25L304.5 323L307.75 324.75L316.25 329L323 332.75L328 335.75L331.75 338.5L332.5 339.5V311.25L331.75 310.5L326.5 307.5L324.25 306.5L321.75 305L318 302.75L314.25 300.5L310.5 298.25L308.5 297L306.5 296L304.25 294.75L301.75 293.25L298.75 291.5L295.75 289.75L293 288L290.25 286.5L286.5 284.5L285 283.75L282.75 282.25L280.25 280.75L277.5 279L275 277.5L273.5 276.5L272.75 276L272.25 276.5L271.25 277.25L269.75 278.25L267.75 279.75L266 281L263.75 282.5L260.75 284.5L258 286.25L254.5 288.25L251.25 290.5L248.25 292.25L244.75 294.5L241.5 296.5L238 298.5L234.5 300.5L230.75 302.5L227.25 304.5L224 306.25L220.5 308.25L219.25 308.75L218.5 309L217.5 309.25L216.25 309L215.25 308.5L214.5 307.75L214 306.75L213.75 305.75V351.5L214.25 351.75L218.25 354L220.75 355.25L226 357.75L228.75 358.75L230 359H232.5L235 358.25L236.75 357.5L240.5 355.75L246.25 352.75L250.5 350.75L254.5 348.5L258.5 346.25L263 343.75L267.25 341.5L271.5 339.25L275.75 337L279.75 334.75L283.75 332.5L287.75 330.5L292 328.25L296.25 326L300.25 323.75L304 321.75L307.5 320L311.25 318L317.25 315L322.5 312L327.5 308.75L330.75 306.5L335 304L339.5 301.25L340.25 300.25V190.75L339 191.5L335.75 193.5L333.25 195L331 196L329 197L326.75 197.75L324.5 198.25L323.75 198.5H320.5L319.5 198.25L318.25 198L317 197.5L315.75 197L314.25 196.25L312.75 195.5L311.25 194.75L309.75 193.75L307.75 192.75L305.5 191.5L303 190L300.5 188.5L297.75 186.75L295 185L292 183.25L289 181.5L285.75 179.5L282.25 177.5L279 175.5L275.75 173.5L272.5 171.5L269 169.25L264.5 166.75L260.75 164.5L256.75 162L253.75 160L249.5 157.25L248 156.5L245.75 155L243.5 153.75L242.25 153L242 152.75L241.75 152.25L241.25 151.75L240.75 151.25L240.25 150.5L240 149.75L240.25 149L241 148.25L242 147.25L243.25 147L245.5 147.25L248.25 148.5L251.25 150L254.75 151.75L258.25 153.5L263.25 156.25L268.5 159.25L273.75 162.25L279 165.25L284.5 168.25L289.75 171.25L294.25 173.75L295.75 174.25L297.5 174.5L299.5 174.25L301.25 173.75L303 173L305 171.75L307.5 170.5L311.25 168.25L315.25 165.75L319.25 163.25L323 161L326.75 158.75L330.25 156.75L333.25 154.75L336.25 152.75L337.5 151.75V149.5L336.25 148.25L333.5 146.75L330.75 145L327.75 143.25L324.5 141.25L321 139.25L317.75 137.25L314.25 135.25L309.75 132.75L304.5 129.5L299.75 126.75L295.5 124L290.75 121L285.75 118L276.25 112.5L267.5 107L263.5 104.5L258.75 101.75L254.75 99.25L250.75 97L247 95L239.75 91.75L236.25 90.5L233.5 89.75L232.5 89.5H230L228.25 89.75L226 90.5L220.5 92.75L215.25 95.25L209.75 97.75L203.5 100.25L200.5 101.5L198.5 102.25L197.25 102.5L195.5 102L194 101L193 99.75L192.25 98.25L192 96.75V89.75L192.25 89.25L193.5 88.5L196 87.5L199 86.5L202.5 85.25L207.25 83.75L212.25 82.5L216.75 81.25L219.75 80.5L222.75 89.75L225 89.5L226.25 89.25L227.25 89H229.75Z" fill="#FEFEFE"></path>
  <path d="M341.25 186.5H341.75L342 187V296.75L341.25 298.5L339 300L333.75 302.75L323.25 308.75L318.25 311.5L313 314.75L308.75 317L305.5 319L302.25 320.75L298.75 322.75L293.75 325.5L289.75 327.75L286 330L281.5 332.5L277.5 334.75L273.75 337L269.25 339.5L265.75 341.5L261 344.25L255.5 347.25L251.5 349.5L247.75 351.75L242.75 354.5L240.25 356L236.75 358L234.5 359.25L233.5 359.5H228.25L225.75 358.25L220.75 355.25L217.25 353.25L212.75 350.75L212.5 349.25V278L212.75 277.5L215 277.75L219 279.75L222.75 281.75L227 284L231 285.75L236 288.5L240 290.75L244.25 293L248.75 295.5L252.75 297.75L256.5 300L260.75 302.25L265.5 304.5L270.25 306.75L275.5 309L283.25 312.5L288.5 315L292.5 317L297 319.25L300.75 321.25L304.5 323L307.75 324.75L316.25 329L323 332.75L328 335.75L331.75 338.5L332.5 339.5V311.25L331.75 310.5L326.5 307.5L324.25 306.5L321.75 305L318 302.75L314.25 300.5L310.5 298.25L308.5 297L306.5 296L304.25 294.75L301.75 293.25L298.75 291.5L295.75 289.75L293 288L290.25 286.5L286.5 284.5L285 283.75L282.75 282.25L280.25 280.75L277.5 279L275 277.5L273.5 276.5L272.75 276L272.25 276.5L271.25 277.25L269.75 278.25L267.75 279.75L266 281L263.75 282.5L260.75 284.5L258 286.25L254.5 288.25L251.25 290.5L248.25 292.25L244.75 294.5L241.5 296.5L238 298.5L234.5 300.5L230.75 302.5L227.25 304.5L224 306.25L220.5 308.25L219.25 308.75L218.5 309L217.5 309.25L216.25 309L215.25 308.5L214.5 307.75L214 306.75L213.75 305.75V351.5L214.25 351.75L218.25 354L220.75 355.25L226 357.75L228.75 358.75L230 359H232.5L235 358.25L236.75 357.5L240.5 355.75L246.25 352.75L250.5 350.75L254.5 348.5L258.5 346.25L263 343.75L267.25 341.5L271.5 339.25L275.75 337L279.75 334.75L283.75 332.5L287.75 330.5L292 328.25L296.25 326L300.25 323.75L304 321.75L307.5 320L311.25 318L317.25 315L322.5 312L327.5 308.75L330.75 306.5L335 304L339.5 301.25L340.25 300.25V190.75L339 191.5L335.75 193.5L333.25 195L331 196L329 197L326.75 197.75L324.5 198.25L323.75 198.5H320.5L319.5 198.25L318.25 198L317 197.5L315.75 197L314.25 196.25L312.75 195.5L311.25 194.75L309.75 193.75L307.75 192.75L305.5 191.5L303 190L300.5 188.5L297.75 186.75L295 185L292 183.25L289 181.5L285.75 179.5L282.25 177.5L279 175.5L275.75 173.5L272.5 171.5L269 169.25L264.5 166.75L260.75 164.5L256.75 162L253.75 160L249.5 157.25L248 156.5L245.75 155L243.5 153.75L242.25 153L242 152.75L241.75 152.25L241.25 151.75L240.75 151.25L240.25 150.5L240 149.75L240.25 149L241 148.25L242 147.25L243.25 147L245.5 147.25L248.25 148.5L251.25 150L254.75 151.75L258.25 153.5L263.25 156.25L268.5 159.25L273.75 162.25L279 165.25L284.5 168.25L289.75 171.25L294.25 173.75L301.75 175H297.5L295.25 174.25L288.25 170L283.25 167L278.75 164.5L270.75 160L264.5 155.5L258 150.75L252.5 147L246.75 143.25L244.5 142.25L243.5 142V143.25L244.25 144.5L249.5 148.5L254.5 152.25L259.75 156.25L264.75 160L270.5 164.25L275.5 168L280.75 171.5L286.25 175.25L291.5 178.75L295.75 181.25L299.75 183.5L303 185.25L306 187.25L308.75 188.75L311.25 190.25L313.5 191.5L315.5 192.5L317.25 193.25L318.75 194H322L323.75 193.75L325.5 193.25L327.25 192.75L328.75 192L330.25 191.25L331.75 190.5L334.5 188.5L337 186.75L339.25 185L340.5 184.25L341 185L341.25 186.5Z" fill="#9D4EDD"></path>
  <path d="M241.75 173.75L244.25 174.25L250.5 178L253.5 179.75L257 181.75L263.5 185.5L270 189.5L272.5 192L274 194L274.25 194.75V245.25L273.25 246.25L268.75 248.75L263.5 251.75L259.5 254L255 256.5L246.5 261.5L244.75 262H241L238.5 261L235.25 259L231.5 256.75L226.25 253.75L220.5 250.5L215.25 247.5L212 245.25L211.75 244.25V191.25L212 188.75L217 185.75L221 183.5L225.75 181L230 178.5L233.5 176.5L237.25 174.5L238.75 174L241.75 173.75Z" fill="#FEFEFE"></path>
</svg>